<svg xmlns="http://www.w3.org/2000/svg" viewBox="0 0 482.98 480.47"><path d="M412.25 70.73A241.49 241.49 0 1 0 203.55 480a35 35 0 0 0 4 .43h1.69V301.18H156.8v-59.69h52.43V196c0-51.75 30.82-80.34 78-80.34 22.59 0 46.22 4 46.22 4v50.82h-26c-25.65 0-33.65 15.92-33.65 32.24v38.74H331l-9.15 59.69h-48.1v179.32c.83 0 1.65 0 2.46-.1h.49c.92-.08 1.83-.19 2.73-.34a241.51 241.51 0 0 0 132.82-409.3zm-103.5 366V336.18h13.12a35 35 0 0 0 34.59-29.7l9.16-59.68a35 35 0 0 0-8-28.11c-6.65-7.74-16.35-13.2-26.56-13.2h2.42a35 35 0 0 0 35-35v-50.8a35 35 0 0 0-29.11-34.5c-1.08-.18-26.84-4.53-52.11-4.53-33 0-61.17 10.73-81.45 31-20.64 20.66-31.54 49.82-31.54 84.32v10.49H156.8a35 35 0 0 0-35 35v59.69a35 35 0 0 0 35 35h17.43v100.6C93.21 408.86 35 332 35 241.49 35 127.45 127.45 35 241.49 35S448 127.45 448 241.49c0 90.51-58.23 167.37-139.25 195.27z"/></svg>