<svg xmlns="http://www.w3.org/2000/svg" viewBox="0 0 536 600"><circle cx="267.9" cy="298.9" r="232.9" stroke="#000" stroke-width="70"/><circle cx="267.9" cy="298.9" r="232.9" fill="#fff"/><path fill="#fff" stroke="#000" stroke-linejoin="round" stroke-width="70" d="M231.5 247.6v51.3h-59.1v67.3h59.1v162.7c11.9 1.9 24 2.8 36.4 2.8s24.5-1 36.4-2.8V366.2h54.3l10.3-67.3h-64.6v-43.7c0-18.4 9-36.4 37.9-36.4h29.4v-57.3S345 157 319.5 157c-53.3 0-88 32.2-88 90.6z"/><path d="M231.5 247.6v51.3h-59.1v67.3h59.1v203.7c12 1.6 24.1 2.4 36.4 2.4 12.3 0 24.4-.8 36.4-2.4V366.2h54.3l10.3-67.3h-64.6v-43.7c0-18.4 9-36.4 37.9-36.4h29.4v-57.3S345 157 319.5 157c-53.3 0-88 32.2-88 90.6z" fill="#fff"/></svg>
