<svg xmlns="http://www.w3.org/2000/svg" viewBox="0 0 496 600"><path d="M247.6 87.4c69.2 0 77.4.3 104.8 1.5 25.3 1.2 39 5.4 48.1 8.9 12.1 4.7 20.7 10.3 29.8 19.4 9.1 9.1 14.7 17.7 19.4 29.8 3.6 9.1 7.8 22.9 8.9 48.1 1.2 27.3 1.5 35.5 1.5 104.8s-.3 77.4-1.5 104.8c-1.2 25.3-5.4 39-8.9 48.1-4.7 12.1-10.3 20.7-19.4 29.8-9.1 9.1-17.7 14.7-29.8 19.4-9.1 3.6-22.9 7.8-48.1 8.9-27.3 1.2-35.5 1.5-104.8 1.5s-77.4-.3-104.8-1.5c-25.3-1.2-39-5.4-48.1-8.9-12.1-4.7-20.7-10.3-29.8-19.4-9.1-9.1-14.7-17.7-19.4-29.8-3.6-9.1-7.8-22.9-8.9-48.1C35.3 377.4 35 369.2 35 300s.3-77.4 1.5-104.8c1.2-25.3 5.4-39 8.9-48.1 4.7-12.1 10.3-20.7 19.4-29.8 9.1-9.1 17.7-14.7 29.8-19.4 9.1-3.6 22.9-7.8 48.1-8.9 27.4-1.3 35.6-1.6 104.9-1.6" stroke="#000" stroke-width="70"/><path d="M247.6 87.4c69.2 0 77.4.3 104.8 1.5 25.3 1.2 39 5.4 48.1 8.9 12.1 4.7 20.7 10.3 29.8 19.4 9.1 9.1 14.7 17.7 19.4 29.8 3.6 9.1 7.8 22.9 8.9 48.1 1.2 27.3 1.5 35.5 1.5 104.8s-.3 77.4-1.5 104.8c-1.2 25.3-5.4 39-8.9 48.1-4.7 12.1-10.3 20.7-19.4 29.8-9.1 9.1-17.7 14.7-29.8 19.4-9.1 3.6-22.9 7.8-48.1 8.9-27.3 1.2-35.5 1.5-104.8 1.5s-77.4-.3-104.8-1.5c-25.3-1.2-39-5.4-48.1-8.9-12.1-4.7-20.7-10.3-29.8-19.4-9.1-9.1-14.7-17.7-19.4-29.8-3.6-9.1-7.8-22.9-8.9-48.1C35.3 377.4 35 369.2 35 300s.3-77.4 1.5-104.8c1.2-25.3 5.4-39 8.9-48.1 4.7-12.1 10.3-20.7 19.4-29.8 9.1-9.1 17.7-14.7 29.8-19.4 9.1-3.6 22.9-7.8 48.1-8.9 27.4-1.3 35.6-1.6 104.9-1.6" fill="#fff"/><circle cx="247.6" cy="300" r="86.4" class="st1" stroke="#000" stroke-width="70"/><circle cx="247.6" cy="300" r="86.4" fill="#fff"/><circle cx="386.1" cy="161.9" r="22.9"/></svg>
