<svg xmlns="http://www.w3.org/2000/svg" viewBox="0 0 401.63 401.63"><path d="M200.81 36.18c53.62 0 60 .21 81.15 1.17 19.58.9 30.21 4.17 37.29 6.92a62.19 62.19 0 0 1 23.09 15 62.32 62.32 0 0 1 15 23.09c2.75 7.08 6 17.71 6.91 37.29 1 21.17 1.17 27.52 1.17 81.14s-.2 60-1.17 81.15c-.89 19.58-4.16 30.21-6.91 37.29a66.48 66.48 0 0 1-38.11 38.11c-7.08 2.75-17.71 6-37.29 6.91-21.17 1-27.52 1.17-81.15 1.17s-60-.2-81.14-1.17c-19.58-.89-30.21-4.16-37.29-6.91a62.32 62.32 0 0 1-23.09-15 62.19 62.19 0 0 1-15-23.09c-2.75-7.08-6-17.71-6.92-37.29-1-21.18-1.17-27.53-1.17-81.15s.21-60 1.17-81.14c.9-19.58 4.17-30.21 6.92-37.29a62.19 62.19 0 0 1 15-23.09 62.19 62.19 0 0 1 23.09-15c7.08-2.75 17.71-6 37.29-6.92 21.17-1 27.52-1.17 81.14-1.17m0-36.18C146.28 0 139.44.23 118 1.21s-36 4.37-48.75 9.33A98.56 98.56 0 0 0 33.7 33.7a98.56 98.56 0 0 0-23.16 35.57C5.58 82.05 2.18 96.64 1.21 118S0 146.28 0 200.81s.23 61.38 1.21 82.8 4.37 36 9.33 48.74a98.39 98.39 0 0 0 23.16 35.57 98.42 98.42 0 0 0 35.57 23.16c12.78 5 27.37 8.36 48.75 9.34s28.26 1.21 82.79 1.21 61.38-.24 82.8-1.21 36-4.37 48.74-9.34a102.65 102.65 0 0 0 58.73-58.73c5-12.77 8.36-27.37 9.34-48.74s1.21-28.26 1.21-82.8-.24-61.37-1.21-82.79-4.37-36-9.34-48.75a98.42 98.42 0 0 0-23.16-35.57 98.39 98.39 0 0 0-35.57-23.16c-12.77-5-27.37-8.36-48.74-9.33S255.35 0 200.81 0z"/><path d="M200.81 97.69a103.12 103.12 0 1 0 103.12 103.12A103.12 103.12 0 0 0 200.81 97.69zm0 170.06a66.94 66.94 0 1 1 66.94-66.94 66.93 66.93 0 0 1-66.94 66.94z"/><circle cx="308.01" cy="93.62" r="24.1"/></svg>