<svg xmlns="http://www.w3.org/2000/svg" viewBox="0 0 542.15 466.05"><path d="M521.72 12.46C505.54-1 482.74-3.76 462 5.22l-417.51 161-.44.17C4.44 182.26-.53 207.11 0 220.51c.9 21.27 16.39 38.56 41.45 46.27l89.57 28 31.57 103.72c.18.59.37 1.17.58 1.74.62 1.71 1.07 3.31 1.6 5.17 2.55 9.06 10.32 36.62 47.84 36.62 24.78 0 38.35-13.2 45.64-20.3l31.33-30.47 84.61 62.52a35.16 35.16 0 0 0 3.89 2.49c13.13 7.25 24.71 9.78 34.48 9.78a53.49 53.49 0 0 0 22.44-4.86c12-5.51 27.57-18.13 33.59-46.9l71.12-335.08c6.52-27.01-.18-51.92-17.99-66.75zM196 322.09l65 48.08-26.74 26c-6.06 5.9-10.87 10.31-21.71 10.86-9.37.48-16.62-4.9-16.53-18.71M505.58 71.41l-71.23 335.68c-5 23.85-19.39 29.56-39.36 18.54L214.77 292.81l206.58-178.19c8.84-7.84-1.93-11.66-13.66-4.55l-248.5 156.78-107.35-33.5c-23.18-7.1-23.34-23 5.21-34.48L475.33 37.58c19.11-8.67 37.55 4.59 30.25 33.83z"/></svg>