<svg xmlns="http://www.w3.org/2000/svg" viewBox="0 0 554 600"><path d="M199.6 391.1l66.6 49.2-27.4 26.6c-6.2 6-11.1 10.5-22.2 11.1-9.6.5-17-5-16.9-19.1l-.1-67.8z" stroke="#000" stroke-linejoin="round" stroke-width="70"/><path d="M199.6 391.1l66.6 49.2-27.4 26.6c-6.2 6-11.1 10.5-22.2 11.1-9.6.5-17-5-16.9-19.1l-.1-67.8z" fill="#fff"/><path d="M516.4 134.7l-72.9 343.4c-5.1 24.4-19.8 30.2-40.3 19L218.9 361.2l211.3-182.3c9-8-2-11.9-14-4.7L162 334.6 52.2 300.4c-23.7-7.3-23.9-23.6 5.3-35.3l427.9-165c19.6-8.9 38.4 4.7 31 34.6z" stroke="#000" stroke-linejoin="round" stroke-width="70"/><path d="M516.4 134.7l-72.9 343.4c-5.1 24.4-19.8 30.2-40.3 19L218.9 361.2l211.3-182.3c9-8-2-11.9-14-4.7L162 334.6 52.2 300.4c-23.7-7.3-23.9-23.6 5.3-35.3l427.9-165c19.6-8.9 38.4 4.7 31 34.6z" fill="#fff"/></svg>
