<svg xmlns="http://www.w3.org/2000/svg" viewBox="0 0 524.44 439.19"><path d="M516.22 56.07a35.43 35.43 0 0 0-5.54-5.29A35 35 0 0 0 459 11.6a151.33 151.33 0 0 1-31.95 14.28C378.11-11.16 308-8.65 261.78 34.79a128.59 128.59 0 0 0-39 74.56 230.11 230.11 0 0 1-129-79.47 35 35 0 0 0-57.42 4.49A128.23 128.23 0 0 0 26.57 142a35 35 0 0 0-8.39 22.74v1.19a128.64 128.64 0 0 0 29 81.21q2.12 2.58 4.35 5a34.91 34.91 0 0 0 1 17.45 128.18 128.18 0 0 0 36 55.78 151.47 151.47 0 0 1-31.1 3.25h-.16a156.59 156.59 0 0 1-18.1-1.1 35 35 0 0 0-23.07 64.25 298.38 298.38 0 0 0 159.45 47.34c.78.05 1.57.08 2.36.08 46.08 0 89.31-9.21 128.51-27.37a285.66 285.66 0 0 0 94.69-70.92c47.93-54.37 75.86-126 77-197.29a223.81 223.81 0 0 0 40.38-45.56 35 35 0 0 0-2.27-41.98zm-73.3 70.79c.27 4 .27 8 .27 12 0 123.21-93.79 265.28-265.28 265.28v-.07A264 264 0 0 1 35 362.31a191.57 191.57 0 0 0 22.2 1.35 187.15 187.15 0 0 0 115.79-40 93.35 93.35 0 0 1-87.11-64.75 93.16 93.16 0 0 0 42.1-1.6 93.27 93.27 0 0 1-74.8-91.4v-1.18a92.53 92.53 0 0 0 42.32 11.68A93.31 93.31 0 0 1 66.63 52a264.65 264.65 0 0 0 192.15 97.41 93.32 93.32 0 0 1 158.89-85 186.88 186.88 0 0 0 59.2-22.63 93.51 93.51 0 0 1-41 51.57 186.34 186.34 0 0 0 53.57-14.75 189.73 189.73 0 0 1-46.52 48.26z"/></svg>