<svg xmlns="http://www.w3.org/2000/svg" viewBox="0 0 633.82 405.6"><path d="M631.25 335l-.31-1.06c-7.14-23-27-48.55-59-84.84-8.22-9.56-17.85-19-26.35-27.36-2.76-2.71-6-5.94-8.82-8.74l.25-.36C588.37 137 613.16 93.29 619.4 67.33c6.8-23.12-1.06-38.78-6.44-46.14C606.09 11.8 592.55.6 567.06.6h-61.51c-26.49 0-47.3 13.32-58.55 37.51l-.62 1.41c-.2.47-19 45.52-46.72 86.35V57.69c0-15.92-3.65-28.46-11.16-38.34C383 12.12 370.24 0 346.71 0H250c-27.86 0-50.52 22.13-50.52 49.33 0 18 9.4 29.75 15 36.79 5.12 6.4 8.53 10.67 9.46 24.6v35.37l-.6-1c-17.1-29-33-63.69-44.77-97.6C174.08 34.49 162.19 0 118 0H55.9C21.94 0 0 20.54 0 52.32 0 68.79 8.68 100 22.66 133.84c13.26 32.07 38.07 83 81 143.39 27.23 39.35 61.69 71.89 99.66 94.09C241 393.35 281.5 405 320.44 405c26.68 0 43.54-3.67 56.37-12.28 15.14-10.15 22.81-25.84 22.81-46.61v-27.8c5 4.12 11 9.45 18.09 16.34 11.78 11.78 20.85 21.89 28.14 30 19.72 22 36.74 40.93 68.66 40.93H576c26.08 0 40.26-11.43 47.56-21 5.87-7.68 14.65-24.34 7.69-49.58zm-95.16-122.72a33.79 33.79 0 0 0 1.13-3.8 32.43 32.43 0 0 1-1.13 3.8zM576 370.6h-61.49c-23.29 0-30.46-19.11-72.26-60.91-36.42-35.23-52.54-40-61.5-40-12.54 0-16.13 3-16.13 20.9v55.53c0 14.93-4.77 23.89-44.18 23.89-65.09 0-137.35-39.41-188.11-112.86C55.9 149.65 35 68.44 35 52.32 35 43.36 38 35 55.9 35H118c15.53 0 21.5 6.57 27.47 23.89 30.46 87.78 81.21 164.81 102.11 164.81 7.77 0 11.35-3.58 11.35-23.29v-90.77c-2.39-41.8-24.48-45.38-24.48-60.31 0-7.16 6-14.33 15.52-14.33h96.74c13.14 0 17.91 7.17 17.91 22.69v122.42c0 13.13 5.38 17.91 9.56 17.91 7.76 0 14.33-4.78 28.66-19.11 44.19-49.56 75.84-126 75.84-126C482.86 44 490 35.6 505.55 35.6h61.51c18.51 0 22.69 9.55 18.51 22.69-7.76 35.83-83 142.12-82.41 142.12-6.57 10.75-9 15.53 0 27.47 6.57 9 28.07 27.47 42.4 44.19 26.27 29.85 46.58 54.93 52 72.25 4.73 17.32-3.63 26.28-21.56 26.28z"/></svg>